<svg width="40" height="40" viewBox="0 0 40 40" fill="none" xmlns="http://www.w3.org/2000/svg">
<path d="M0 4C0 1.79086 1.79086 0 4 0H40V40H4C1.79086 40 0 38.2091 0 36V4Z" fill="white"/>
<path d="M31.588 12.884C32.044 12.884 32.44 13.064 32.776 13.424C33.136 13.76 33.316 14.204 33.316 14.756C33.316 14.876 33.304 14.996 33.28 15.116C33.256 15.236 33.22 15.344 33.172 15.44L27.664 30.848C27.52 31.256 27.268 31.568 26.908 31.784C26.548 31.976 26.176 32.048 25.792 32C25.096 31.952 24.58 31.568 24.244 30.848L20.176 20.048L21.004 20.12L17.26 30.848C16.924 31.568 16.408 31.952 15.712 32C15.352 32.048 14.98 31.976 14.596 31.784C14.236 31.568 13.984 31.256 13.84 30.848L8.296 15.44C8.2 15.224 8.152 14.996 8.152 14.756C8.152 14.252 8.308 13.82 8.62 13.46C8.956 13.076 9.4 12.884 9.952 12.884C10.336 12.884 10.672 12.98 10.96 13.172C11.272 13.364 11.488 13.652 11.608 14.036L16.216 27.032L15.388 26.96L19.132 17.132C19.444 16.388 19.996 16.016 20.788 16.016C21.22 16.016 21.556 16.112 21.796 16.304C22.036 16.496 22.228 16.772 22.372 17.132L26.188 26.996L25.216 27.104L29.86 14.036C30.1 13.268 30.676 12.884 31.588 12.884Z" fill="#082642"/>
</svg>
