<svg width="45" height="45" viewBox="0 0 45 45" fill="none" xmlns="http://www.w3.org/2000/svg">
<path d="M0 4C0 1.79086 1.79086 0 4 0H45V45H4C1.79086 45 0 43.2091 0 41V4Z" fill="white"/>
<path d="M32.463 12.884C32.919 12.884 33.315 13.064 33.651 13.424C34.011 13.76 34.191 14.204 34.191 14.756C34.191 14.876 34.179 14.996 34.155 15.116C34.131 15.236 34.095 15.344 34.047 15.44L28.539 30.848C28.395 31.256 28.143 31.568 27.783 31.784C27.423 31.976 27.051 32.048 26.667 32C25.971 31.952 25.455 31.568 25.119 30.848L21.051 20.048L21.879 20.12L18.135 30.848C17.799 31.568 17.283 31.952 16.587 32C16.227 32.048 15.855 31.976 15.471 31.784C15.111 31.568 14.859 31.256 14.715 30.848L9.171 15.44C9.075 15.224 9.027 14.996 9.027 14.756C9.027 14.252 9.183 13.82 9.495 13.46C9.831 13.076 10.275 12.884 10.827 12.884C11.211 12.884 11.547 12.98 11.835 13.172C12.147 13.364 12.363 13.652 12.483 14.036L17.091 27.032L16.263 26.96L20.007 17.132C20.319 16.388 20.871 16.016 21.663 16.016C22.095 16.016 22.431 16.112 22.671 16.304C22.911 16.496 23.103 16.772 23.247 17.132L27.063 26.996L26.091 27.104L30.735 14.036C30.975 13.268 31.551 12.884 32.463 12.884Z" fill="url(#paint0_linear_56_30)"/>
<defs>
<linearGradient id="paint0_linear_56_30" x1="35.8835" y1="24.8893" x2="6.30404" y2="-4.63929" gradientUnits="userSpaceOnUse">
<stop stop-color="#3498DB"/>
<stop offset="0.5" stop-color="#2875A8"/>
<stop offset="1" stop-color="#1C5175"/>
</linearGradient>
</defs>
</svg>
