<svg width="40" height="40" viewBox="0 0 40 40" fill="none" xmlns="http://www.w3.org/2000/svg">
<rect width="40" height="40" rx="4" fill="url(#paint0_linear_52_35)"/>
<path d="M30.588 12.884C31.044 12.884 31.44 13.064 31.776 13.424C32.136 13.76 32.316 14.204 32.316 14.756C32.316 14.876 32.304 14.996 32.28 15.116C32.256 15.236 32.22 15.344 32.172 15.44L26.664 30.848C26.52 31.256 26.268 31.568 25.908 31.784C25.548 31.976 25.176 32.048 24.792 32C24.096 31.952 23.58 31.568 23.244 30.848L19.176 20.048L20.004 20.12L16.26 30.848C15.924 31.568 15.408 31.952 14.712 32C14.352 32.048 13.98 31.976 13.596 31.784C13.236 31.568 12.984 31.256 12.84 30.848L7.296 15.44C7.2 15.224 7.152 14.996 7.152 14.756C7.152 14.252 7.308 13.82 7.62 13.46C7.956 13.076 8.4 12.884 8.952 12.884C9.336 12.884 9.672 12.98 9.96 13.172C10.272 13.364 10.488 13.652 10.608 14.036L15.216 27.032L14.388 26.96L18.132 17.132C18.444 16.388 18.996 16.016 19.788 16.016C20.22 16.016 20.556 16.112 20.796 16.304C21.036 16.496 21.228 16.772 21.372 17.132L25.188 26.996L24.216 27.104L28.86 14.036C29.1 13.268 29.676 12.884 30.588 12.884Z" fill="white"/>
<defs>
<linearGradient id="paint0_linear_52_35" x1="40" y1="39.6214" x2="-5.49458e-07" y2="0.378602" gradientUnits="userSpaceOnUse">
<stop stop-color="#4DB8FF"/>
<stop offset="1" stop-color="#1A73E8"/>
</linearGradient>
</defs>
</svg>
