<svg width="69" height="69" viewBox="0 0 69 69" fill="none" xmlns="http://www.w3.org/2000/svg">
<path d="M62.2363 7.25163C62.2134 7.14103 62.1594 7.03928 62.0806 6.95835C62.0018 6.87741 61.9015 6.82066 61.7916 6.79478C54.463 5.0024 37.5338 11.3889 28.3522 20.5638C26.7159 22.1868 25.2238 23.9489 23.8928 25.8304C21.0627 25.5744 18.2327 25.79 15.823 26.8412C9.01873 29.833 7.03902 37.6467 6.48648 41.001C6.45654 41.1848 6.46933 41.373 6.52385 41.5511C6.57837 41.7291 6.67316 41.8922 6.80087 42.0278C6.92858 42.1633 7.08578 42.2676 7.26029 42.3326C7.4348 42.3976 7.62193 42.4215 7.80718 42.4025L18.7326 41.2031C18.7401 42.0272 18.7896 42.8503 18.8809 43.6693C18.9379 44.2354 19.1905 44.7639 19.5951 45.1639L23.8254 49.3942C24.2257 49.7991 24.7548 50.0517 25.3213 50.1084C26.1354 50.1992 26.9536 50.2487 27.7727 50.2567L26.5746 61.1727C26.5559 61.3577 26.58 61.5446 26.645 61.7188C26.7101 61.893 26.8143 62.0499 26.9496 62.1774C27.0849 62.305 27.2478 62.3997 27.4256 62.4542C27.6033 62.5088 27.7913 62.5217 27.9749 62.4921C31.3305 61.953 39.1604 59.9733 42.1347 53.1703C43.1859 50.758 43.4015 47.9428 43.1589 45.1262C45.0459 43.7964 46.8132 42.3043 48.4404 40.6668C57.6556 31.5027 64.0018 14.9454 62.2363 7.25163ZM40.2493 28.7953C39.4444 27.9905 38.8962 26.9652 38.6741 25.8489C38.4519 24.7326 38.5658 23.5755 39.0013 22.5239C39.4368 21.4723 40.1744 20.5735 41.1207 19.9412C42.0671 19.3088 43.1797 18.9713 44.3179 18.9713C45.4561 18.9713 46.5687 19.3088 47.515 19.9412C48.4614 20.5735 49.199 21.4723 49.6345 22.5239C50.07 23.5755 50.1839 24.7326 49.9617 25.8489C49.7396 26.9652 49.1914 27.9905 48.3865 28.7953C47.8526 29.3303 47.2184 29.7547 46.5203 30.0444C45.8221 30.334 45.0737 30.483 44.3179 30.483C43.5621 30.483 42.8136 30.334 42.1155 30.0444C41.4174 29.7547 40.7832 29.3303 40.2493 28.7953Z" stroke="url(#paint0_linear_38_44)" stroke-width="3" stroke-linecap="round" stroke-linejoin="round"/>
<path d="M14.7757 47.4375C13.4322 47.6024 12.1824 48.2115 11.2246 49.1679C8.85006 51.5505 8.625 60.375 8.625 60.375C8.625 60.375 17.4548 60.1499 19.8308 57.7727C20.7911 56.8164 21.4011 55.5645 21.5625 54.2189" stroke="url(#paint1_linear_38_44)" stroke-width="3" stroke-linecap="round" stroke-linejoin="round"/>
<defs>
<linearGradient id="paint0_linear_38_44" x1="34.5012" y1="6.49268" x2="34.5012" y2="62.5076" gradientUnits="userSpaceOnUse">
<stop stop-color="#3498DB"/>
<stop offset="1" stop-color="#33DBA0"/>
</linearGradient>
<linearGradient id="paint1_linear_38_44" x1="15.0938" y1="47.4375" x2="15.0938" y2="60.375" gradientUnits="userSpaceOnUse">
<stop stop-color="#3498DB"/>
<stop offset="1" stop-color="#33DBA0"/>
</linearGradient>
</defs>
</svg>
