<svg width="69" height="69" viewBox="0 0 69 69" fill="none" xmlns="http://www.w3.org/2000/svg">
<g clip-path="url(#clip0_38_40)">
<path d="M34.5003 20.5015C32.662 20.5015 30.8417 20.8635 29.1434 21.567C27.445 22.2705 25.9019 23.3016 24.602 24.6015C23.3021 25.9014 22.271 27.4445 21.5675 29.1429C20.864 30.8413 20.502 32.6615 20.502 34.4998C20.502 36.3381 20.864 38.1584 21.5675 39.8568C22.271 41.5551 23.3021 43.0983 24.602 44.3982C25.9019 45.6981 27.445 46.7292 29.1434 47.4326C30.8417 48.1361 32.662 48.4982 34.5003 48.4982C38.2129 48.4982 41.7735 47.0234 44.3987 44.3982C47.0239 41.773 48.4987 38.2124 48.4987 34.4998C48.4987 30.7872 47.0239 27.2267 44.3987 24.6015C41.7735 21.9763 38.2129 20.5015 34.5003 20.5015ZM24.8145 34.4998C24.8145 31.931 25.8349 29.4673 27.6514 27.6509C29.4678 25.8344 31.9315 24.814 34.5003 24.814C37.0692 24.814 39.5328 25.8344 41.3493 27.6509C43.1657 29.4673 44.1862 31.931 44.1862 34.4998C44.1862 37.0687 43.1657 39.5323 41.3493 41.3488C39.5328 43.1652 37.0692 44.1857 34.5003 44.1857C31.9315 44.1857 29.4678 43.1652 27.6514 41.3488C25.8349 39.5323 24.8145 37.0687 24.8145 34.4998Z" fill="url(#paint0_linear_38_40)"/>
<path d="M42.245 5.79148C39.9724 -1.92789 29.0272 -1.92789 26.7545 5.79148L26.3492 7.16717C26.1905 7.70603 25.9132 8.20254 25.5376 8.6203C25.1621 9.03807 24.6978 9.36651 24.1789 9.58153C23.6599 9.79656 23.0994 9.89273 22.5384 9.86299C21.9775 9.83325 21.4303 9.67836 20.937 9.40967L19.6777 8.71967C12.6052 4.87292 4.87292 12.6095 8.72398 19.6777L9.40967 20.937C9.67836 21.4303 9.83325 21.9775 9.86299 22.5384C9.89273 23.0994 9.79656 23.6599 9.58153 24.1789C9.36651 24.6978 9.03807 25.1621 8.6203 25.5376C8.20254 25.9132 7.70603 26.1905 7.16717 26.3492L5.79148 26.7545C-1.92789 29.0272 -1.92789 39.9724 5.79148 42.245L7.16717 42.6504C7.70603 42.8091 8.20254 43.0864 8.6203 43.462C9.03807 43.8375 9.36651 44.3018 9.58153 44.8207C9.79656 45.3397 9.89273 45.9002 9.86299 46.4611C9.83325 47.0221 9.67836 47.5693 9.40967 48.0626L8.71967 49.3219C4.87292 56.3944 12.6052 64.131 19.6777 60.2756L20.937 59.5899C21.4303 59.3212 21.9775 59.1663 22.5384 59.1366C23.0994 59.1069 23.6599 59.203 24.1789 59.4181C24.6978 59.6331 25.1621 59.9615 25.5376 60.3793C25.9132 60.7971 26.1905 61.2936 26.3492 61.8324L26.7545 63.2081C29.0272 70.9275 39.9724 70.9275 42.245 63.2081L42.6504 61.8324C42.8091 61.2936 43.0864 60.7971 43.462 60.3793C43.8375 59.9615 44.3018 59.6331 44.8207 59.4181C45.3397 59.203 45.9002 59.1069 46.4611 59.1366C47.0221 59.1663 47.5693 59.3212 48.0626 59.5899L49.3219 60.2799C56.3944 64.131 64.131 56.39 60.2756 49.3219L59.5899 48.0626C59.3212 47.5693 59.1663 47.0221 59.1366 46.4611C59.1069 45.9002 59.203 45.3397 59.4181 44.8207C59.6331 44.3018 59.9615 43.8375 60.3793 43.462C60.7971 43.0864 61.2936 42.8091 61.8324 42.6504L63.2081 42.245C70.9275 39.9724 70.9275 29.0272 63.2081 26.7545L61.8324 26.3492C61.2936 26.1905 60.7971 25.9132 60.3793 25.5376C59.9615 25.1621 59.6331 24.6978 59.4181 24.1789C59.203 23.6599 59.1069 23.0994 59.1366 22.5384C59.1663 21.9775 59.3212 21.4303 59.5899 20.937L60.2799 19.6777C64.131 12.6052 56.39 4.87292 49.3219 8.72398L48.0626 9.40967C47.5693 9.67836 47.0221 9.83325 46.4611 9.86299C45.9002 9.89273 45.3397 9.79656 44.8207 9.58153C44.3018 9.36651 43.8375 9.03807 43.462 8.6203C43.0864 8.20254 42.8091 7.70603 42.6504 7.16717L42.245 5.79148ZM30.8902 7.01192C31.9511 3.41098 37.0485 3.41098 38.1094 7.01192L38.5147 8.38761C38.8555 9.54373 39.4507 10.6089 40.2567 11.5051C41.0626 12.4013 42.0589 13.1058 43.1726 13.5668C44.2862 14.0279 45.4889 14.2339 46.6924 14.1698C47.896 14.1056 49.07 13.7729 50.1283 13.196L51.3832 12.506C54.678 10.7164 58.2832 14.3173 56.4892 17.6164L55.8035 18.8756C55.2276 19.934 54.8957 21.1079 54.8322 22.3112C54.7687 23.5145 54.9753 24.7168 55.4368 25.8299C55.8982 26.943 56.6029 27.9388 57.4991 28.7442C58.3953 29.5497 59.4604 30.1444 60.6163 30.4849L61.9877 30.8902C65.5886 31.9511 65.5886 37.0485 61.9877 38.1094L60.612 38.5147C59.4559 38.8555 58.3907 39.4507 57.4945 40.2567C56.5983 41.0626 55.8938 42.0589 55.4328 43.1726C54.9717 44.2862 54.7657 45.4889 54.8298 46.6924C54.894 47.896 55.2267 49.07 55.8035 50.1283L56.4935 51.3832C58.2832 54.678 54.6823 58.2832 51.3832 56.4892L50.1283 55.8035C49.0697 55.2267 47.8955 54.8942 46.6916 54.8303C45.4878 54.7664 44.285 54.9728 43.1713 55.4343C42.0576 55.8958 41.0614 56.6008 40.2556 57.4975C39.4498 58.3941 38.855 59.4598 38.5147 60.6163L38.1094 61.9877C37.0485 65.5886 31.9511 65.5886 30.8902 61.9877L30.4849 60.612C30.1439 59.4565 29.5488 58.3918 28.7432 57.4961C27.9375 56.6004 26.9417 55.8962 25.8286 55.4352C24.7155 54.9742 23.5134 54.768 22.3104 54.8317C21.1073 54.8954 19.9337 55.2275 18.8756 55.8035L17.6164 56.4935C14.3216 58.2832 10.7164 54.6823 12.5104 51.3832L13.196 50.1283C13.7737 49.0698 14.1071 47.8955 14.1716 46.6914C14.2362 45.4873 14.0304 44.284 13.5693 43.1698C13.1081 42.0557 12.4034 41.0589 11.5067 40.2526C10.6101 39.4463 9.54433 38.851 8.38761 38.5104L7.01192 38.105C3.41098 37.0442 3.41098 31.9468 7.01192 30.8859L8.38761 30.4805C9.54252 30.1395 10.6066 29.5445 11.5018 28.7391C12.3971 27.9337 13.101 26.9384 13.562 25.8259C14.0229 24.7134 14.2293 23.5119 14.166 22.3093C14.1027 21.1067 13.7713 19.9336 13.196 18.8756L12.506 17.6164C10.7164 14.3216 14.3173 10.7164 17.6164 12.5104L18.8756 13.196C19.9337 13.7721 21.1073 14.1041 22.3104 14.1679C23.5134 14.2316 24.7155 14.0254 25.8286 13.5644C26.9417 13.1034 27.9375 12.3992 28.7432 11.5035C29.5488 10.6077 30.1439 9.54312 30.4849 8.38761L30.8902 7.01192Z" fill="url(#paint1_linear_38_40)"/>
</g>
<defs>
<linearGradient id="paint0_linear_38_40" x1="34.0946" y1="21.718" x2="34.5003" y2="48.4982" gradientUnits="userSpaceOnUse">
<stop stop-color="#3498DB"/>
<stop offset="1" stop-color="#33DBA0"/>
</linearGradient>
<linearGradient id="paint1_linear_38_40" x1="33.5" y1="3" x2="34.4998" y2="68.9976" gradientUnits="userSpaceOnUse">
<stop stop-color="#3498DB"/>
<stop offset="1" stop-color="#33DBA0"/>
</linearGradient>
<clipPath id="clip0_38_40">
<rect width="69" height="69" fill="white"/>
</clipPath>
</defs>
</svg>
