<svg width="69" height="69" viewBox="0 0 69 69" fill="none" xmlns="http://www.w3.org/2000/svg">
<g clip-path="url(#clip0_38_47)">
<path d="M34.3563 69C29.6563 69 25.2209 68.0928 21.05 66.2783C16.8766 64.4613 13.2334 61.9952 10.1206 58.88C7.00774 55.7648 4.54149 52.1103 2.72184 47.9167C0.902183 43.723 -0.00508992 39.2508 2.14764e-05 34.5C2.14764e-05 29.6879 0.92774 25.1837 2.78318 20.9875C4.63861 16.7913 7.16747 13.1394 10.3698 10.0318C13.572 6.92428 17.3289 4.47606 21.6404 2.68717C25.9518 0.898278 30.5432 0.00255556 35.4143 0C39.8868 0 44.1446 0.755167 48.1877 2.2655C52.2333 3.77839 55.7934 5.87394 58.8679 8.55217C61.9424 11.2355 64.3997 14.4299 66.2398 18.1355C68.0799 21.8411 69 25.8852 69 30.268C69 36.1918 67.2928 40.9323 63.8784 44.4897C60.464 48.047 55.7832 49.8282 49.8361 49.8333H43.0392C41.4317 49.8333 40.0861 50.3866 39.0025 51.4932C37.9189 52.5997 37.3771 53.9337 37.3771 55.4952C37.3771 57.0975 37.8563 58.4571 38.8147 59.5738C39.7731 60.6906 40.2522 61.9799 40.2522 63.4417C40.2522 65.3072 39.7296 66.7 38.6843 67.62C37.6416 68.54 36.2015 69 34.3563 69ZM13.4174 36.4167C14.4908 36.4167 15.3981 36.0461 16.1392 35.305C16.8804 34.5639 17.251 33.6567 17.251 32.5833C17.251 31.51 16.8804 30.6028 16.1392 29.8617C15.3981 29.1206 14.4908 28.75 13.4174 28.75C12.344 28.75 11.4368 29.1206 10.6956 29.8617C9.95446 30.6028 9.58388 31.51 9.58388 32.5833C9.58388 33.6567 9.95446 34.5639 10.6956 35.305C11.4368 36.0461 12.344 36.4167 13.4174 36.4167ZM24.9181 21.0833C25.9915 21.0833 26.8987 20.7128 27.6399 19.9717C28.381 19.2306 28.7516 18.3233 28.7516 17.25C28.7516 16.1767 28.381 15.2694 27.6399 14.5283C26.8987 13.7872 25.9915 13.4167 24.9181 13.4167C23.8447 13.4167 22.9374 13.7872 22.1962 14.5283C21.4551 15.2694 21.0845 16.1767 21.0845 17.25C21.0845 18.3233 21.4551 19.2306 22.1962 19.9717C22.9374 20.7128 23.8447 21.0833 24.9181 21.0833ZM44.0858 21.0833C45.1592 21.0833 46.0665 20.7128 46.8076 19.9717C47.5488 19.2306 47.9193 18.3233 47.9193 17.25C47.9193 16.1767 47.5488 15.2694 46.8076 14.5283C46.0665 13.7872 45.1592 13.4167 44.0858 13.4167C43.0124 13.4167 42.1051 13.7872 41.364 14.5283C40.6228 15.2694 40.2522 16.1767 40.2522 17.25C40.2522 18.3233 40.6228 19.2306 41.364 19.9717C42.1051 20.7128 43.0124 21.0833 44.0858 21.0833ZM55.5864 36.4167C56.6598 36.4167 57.5671 36.0461 58.3082 35.305C59.0494 34.5639 59.42 33.6567 59.42 32.5833C59.42 31.51 59.0494 30.6028 58.3082 29.8617C57.5671 29.1206 56.6598 28.75 55.5864 28.75C54.513 28.75 53.6058 29.1206 52.8646 29.8617C52.1235 30.6028 51.7529 31.51 51.7529 32.5833C51.7529 33.6567 52.1235 34.5639 52.8646 35.305C53.6058 36.0461 54.513 36.4167 55.5864 36.4167ZM34.3563 65.1667C35.0284 65.1667 35.5395 65.0197 35.8897 64.7258C36.2424 64.4294 36.4187 64.0013 36.4187 63.4417C36.4187 62.5472 35.9395 61.5914 34.9811 60.5743C34.0227 59.5572 33.5435 57.8833 33.5435 55.5527C33.5435 52.7722 34.47 50.485 36.3229 48.691C38.1757 46.897 40.4439 46 43.1274 46H49.8361C54.6408 46 58.3977 44.5855 61.1067 41.7565C63.8158 38.9275 65.1703 35.098 65.1703 30.268C65.1703 22.4889 62.1788 16.1383 56.196 11.2163C50.2131 6.29433 43.2871 3.83333 35.4181 3.83333C26.578 3.83333 19.1039 6.80417 12.9957 12.7458C6.88762 18.6875 3.83357 25.9389 3.83357 34.5C3.83357 42.9972 6.82117 50.2333 12.7964 56.2082C18.7716 62.1831 25.9582 65.1692 34.3563 65.1667Z" fill="url(#paint0_linear_38_47)"/>
</g>
<defs>
<linearGradient id="paint0_linear_38_47" x1="34.5" y1="0" x2="34.5" y2="69" gradientUnits="userSpaceOnUse">
<stop stop-color="#3498DB"/>
<stop offset="1" stop-color="#33DBA0"/>
</linearGradient>
<clipPath id="clip0_38_47">
<rect width="69" height="69" fill="white"/>
</clipPath>
</defs>
</svg>
