<svg width="71" height="71" viewBox="0 0 71 71" fill="none" xmlns="http://www.w3.org/2000/svg">
<path d="M47.1484 16.6406H23.8516C22.9325 16.6406 22.1875 17.3857 22.1875 18.3047V34.9453C22.1875 35.8643 22.9325 36.6094 23.8516 36.6094H47.1484C48.0675 36.6094 48.8125 35.8643 48.8125 34.9453V18.3047C48.8125 17.3857 48.0675 16.6406 47.1484 16.6406Z" stroke="#3498DB" stroke-width="2"/>
<path d="M39.9375 37.7188H31.0625V39.9375H39.9375V37.7188Z" stroke="#3498DB" stroke-width="2"/>
<path d="M51.5859 22.1875H41.6016C40.6825 22.1875 39.9375 22.9325 39.9375 23.8516V40.4922C39.9375 41.4112 40.6825 42.1562 41.6016 42.1562H51.5859C52.505 42.1562 53.25 41.4112 53.25 40.4922V23.8516C53.25 22.9325 52.505 22.1875 51.5859 22.1875Z" stroke="#3498DB" stroke-width="2"/>
<path d="M46.5938 41.8789C47.0533 41.8789 47.4258 41.5064 47.4258 41.0469C47.4258 40.5874 47.0533 40.2148 46.5938 40.2148C46.1342 40.2148 45.7617 40.5874 45.7617 41.0469C45.7617 41.5064 46.1342 41.8789 46.5938 41.8789Z" stroke="#3498DB" stroke-width="2"/>
<path d="M20.5234 22.1875H14.9766C14.0575 22.1875 13.3125 22.9325 13.3125 23.8516V36.0547C13.3125 36.9737 14.0575 37.7188 14.9766 37.7188H20.5234C21.4425 37.7188 22.1875 36.9737 22.1875 36.0547V23.8516C22.1875 22.9325 21.4425 22.1875 20.5234 22.1875Z" stroke="#3498DB" stroke-width="2"/>
<path d="M17.75 37.1641C18.0563 37.1641 18.3047 36.9157 18.3047 36.6094C18.3047 36.303 18.0563 36.0547 17.75 36.0547C17.4437 36.0547 17.1953 36.303 17.1953 36.6094C17.1953 36.9157 17.4437 37.1641 17.75 37.1641Z" stroke="#3498DB" stroke-width="2"/>
<path d="M17.75 34.779C17.9644 34.779 18.1383 34.6052 18.1383 34.3907C18.1383 34.1763 17.9644 34.0024 17.75 34.0024C17.5355 34.0024 17.3617 34.1763 17.3617 34.3907C17.3617 34.6052 17.5355 34.779 17.75 34.779Z" stroke="#3498DB" stroke-width="2"/>
</svg>
