<svg width="71" height="71" viewBox="0 0 71 71" fill="none" xmlns="http://www.w3.org/2000/svg">
<path d="M31.8258 44.9429C32.7428 45.8619 33.9202 46.28 35.358 46.1972C36.7957 46.1163 37.845 45.5996 38.5057 44.647L54.0458 22.9831L32.2695 38.4138C31.2794 39.0725 30.7282 40.0961 30.6158 41.4846C30.5034 42.873 30.9067 44.0238 31.8258 44.9429ZM35.5 14.7915C38.2197 14.7915 40.6948 15.1229 42.9254 15.7855C45.158 16.4462 47.3826 17.457 49.5994 18.8178L46.8777 20.6609C45.1363 19.7102 43.3337 18.9874 41.4699 18.4924C39.6062 17.9974 37.6162 17.7499 35.5 17.7499C28.9424 17.7499 23.358 20.0554 18.747 24.6664C14.1359 29.2775 11.8314 34.8609 11.8333 41.4165C11.8333 43.4874 12.1173 45.5335 12.6853 47.5551C13.2533 49.5766 14.0541 51.4749 15.0875 53.2499H55.9125C57.0465 51.3762 57.8729 49.4287 58.3916 47.4071C58.9103 45.3856 59.1686 43.2901 59.1667 41.1207C59.1667 39.3457 58.9379 37.478 58.4803 35.5176C58.0228 33.5572 57.299 31.7309 56.3089 30.0388L58.1549 27.3171C59.5946 29.7863 60.6133 32.1096 61.2109 34.2869C61.8085 36.4643 62.1132 38.7304 62.125 41.0852C62.1368 43.6294 61.8538 46.0039 61.276 48.2089C60.7001 50.4138 59.8027 52.6365 58.5839 54.8769C58.3472 55.2714 57.9873 55.5919 57.5041 55.8384C57.0209 56.0849 56.4904 56.2082 55.9125 56.2082H15.0875C14.5451 56.2082 14.0422 56.076 13.5788 55.8118C13.1173 55.5455 12.7287 55.158 12.4132 54.6491C11.4349 52.9234 10.6007 50.9769 9.91042 48.8094C9.22014 46.6419 8.875 44.1776 8.875 41.4165C8.875 37.7797 9.56528 34.3471 10.9458 31.1186C12.3244 27.89 14.2069 25.0629 16.5933 22.637C18.9797 20.2112 21.8019 18.2962 25.06 16.8919C28.3182 15.4877 31.7981 14.7876 35.5 14.7915Z" fill="#3498DB"/>
</svg>
