<svg width="71" height="71" viewBox="0 0 71 71" fill="none" xmlns="http://www.w3.org/2000/svg">
<path d="M57.6875 12.2031H13.3125C11.8414 12.2031 10.4305 12.7875 9.39027 13.8278C8.35003 14.868 7.76563 16.2789 7.76562 17.75V48.8125C7.76563 50.2836 8.35003 51.6945 9.39027 52.7347C10.4305 53.775 11.8414 54.3594 13.3125 54.3594H34.3906V61.0156H26.625C26.3308 61.0156 26.0486 61.1325 25.8406 61.3406C25.6325 61.5486 25.5156 61.8308 25.5156 62.125C25.5156 62.4192 25.6325 62.7014 25.8406 62.9094C26.0486 63.1175 26.3308 63.2344 26.625 63.2344H44.375C44.6692 63.2344 44.9514 63.1175 45.1594 62.9094C45.3675 62.7014 45.4844 62.4192 45.4844 62.125C45.4844 61.8308 45.3675 61.5486 45.1594 61.3406C44.9514 61.1325 44.6692 61.0156 44.375 61.0156H36.6094V54.3594H57.6875C59.1586 54.3594 60.5695 53.775 61.6097 52.7347C62.65 51.6945 63.2344 50.2836 63.2344 48.8125V17.75C63.2344 16.2789 62.65 14.868 61.6097 13.8278C60.5695 12.7875 59.1586 12.2031 57.6875 12.2031ZM13.3125 14.4219H57.6875C58.5702 14.4219 59.4167 14.7725 60.0408 15.3967C60.665 16.0208 61.0156 16.8673 61.0156 17.75V41.0469H9.98438V17.75C9.98438 16.8673 10.335 16.0208 10.9592 15.3967C11.5833 14.7725 12.4298 14.4219 13.3125 14.4219ZM57.6875 52.1406H13.3125C12.4298 52.1406 11.5833 51.79 10.9592 51.1658C10.335 50.5417 9.98438 49.6952 9.98438 48.8125V43.2656H61.0156V48.8125C61.0156 49.6952 60.665 50.5417 60.0408 51.1658C59.4167 51.79 58.5702 52.1406 57.6875 52.1406Z" fill="#3498DB"/>
</svg>
