<svg width="100" height="100" viewBox="0 0 100 100" fill="none" xmlns="http://www.w3.org/2000/svg">
<path d="M0 0H100V100H0V0Z" fill="url(#paint0_linear_221_4)"/>
<path d="M78.376 21.64C79.848 21.64 81.128 22.216 82.216 23.368C83.304 24.456 83.848 25.864 83.848 27.592C83.848 28.04 83.816 28.456 83.752 28.84C83.688 29.16 83.592 29.48 83.464 29.8L68.776 69.352C68.328 70.632 67.528 71.624 66.376 72.328C65.224 72.968 64.008 73.192 62.728 73C60.552 72.872 58.92 71.656 57.832 69.352L48.328 41.992L50.824 42.088L41.896 69.352C40.808 71.656 39.176 72.872 37 73C35.784 73.192 34.568 72.968 33.352 72.328C32.2 71.624 31.4 70.632 30.952 69.352L16.264 29.8C16.008 29.096 15.88 28.36 15.88 27.592C15.88 26.056 16.392 24.68 17.416 23.464C18.44 22.248 19.848 21.64 21.64 21.64C22.856 21.64 23.944 21.928 24.904 22.504C25.864 23.08 26.536 24.008 26.92 25.288L38.536 56.776L36.136 56.584L44.872 32.872C45.896 30.504 47.656 29.32 50.152 29.32C51.56 29.32 52.616 29.64 53.32 30.28C54.088 30.856 54.696 31.72 55.144 32.872L63.88 56.584L61 56.968L72.808 25.288C73.576 22.856 75.432 21.64 78.376 21.64Z" fill="white"/>
<defs>
<linearGradient id="paint0_linear_221_4" x1="99.5534" y1="100" x2="1.37586" y2="5.69629e-07" gradientUnits="userSpaceOnUse">
<stop offset="0.197115" stop-color="#3498DB"/>
<stop offset="0.634615" stop-color="#2980B9"/>
<stop offset="1" stop-color="#0F3755"/>
</linearGradient>
</defs>
</svg>
